<?xml version="1.0" encoding="UTF-8"?>
<svg id="a" xmlns="http://www.w3.org/2000/svg" viewBox="0 0 145.68 242.61">
  <defs>
    <style>
      .b {
        fill: #fff;
      }
    </style>
  </defs>
  <polygon class="b" points="13.1 242.61 13.07 242.61 12.78 242.29 13.06 242.57 13.1 242.61"/>
  <path class="b" d="M145.68,228.35h-.01s.01,1.31.01,1.31v3.19l-9.8,9.76H13.1l-.04-.04-.28-.28.29.32h-3.3l-9.77-9.76v-3.14h.05l-.05-.05v-74.55l13.07-13.07v-53L0,77.65V16.23l6.11-6.27L15.8,0h39.14l10.01,9.96h66.46l6.22,6.27,4.07,4.07c.11.11.22.22.3.34l.16.17,3.52,3.53v204.01Z"/>
  <polygon class="b" points="13.1 242.61 13.07 242.61 12.78 242.29 13.06 242.57 13.1 242.61"/>
</svg>