<?xml version="1.0" encoding="UTF-8"?>
<svg id="a" data-name="Layer 1" xmlns="http://www.w3.org/2000/svg" viewBox="0 0 259.2 278.88">
  <defs>
    <style>
      .c {
        fill: #fff;
      }

      .d {
        fill: none;
      }

      .e {
        fill: #231f20;
      }
    </style>
  </defs>
  <rect class="d" x="184.44" y="243.71" width="14.27" height="14.27"/>
  <path class="c" d="M186.17,34.6h6.8v14.61c0,3.75-3.05,6.8-6.8,6.8h0v-21.41h0Z" transform="translate(23.48 147.32) rotate(-45)"/>
  <polygon class="e" points="53.03 99.9 53.03 184.68 67.39 167.97 67.06 110.91 53.03 99.9"/>
  <polygon class="c" points="117.98 35.32 102.62 25.36 68.83 25.36 59.14 35.32 117.98 35.32"/>
  <polyline class="c" points="94.87 25.36 107.97 25.36 117.98 35.32 96.12 35.37 96.12 35.37"/>
  <polygon class="c" points="194.64 45.6 194.64 167.4 68.83 167.4 68.83 41.59 190.66 41.59 184.44 35.32 59.14 35.32 53.03 41.59 53.03 103.01 66.1 114.4 66.1 167.4 53.03 180.47 53.03 243.71 66.1 257.97 184.44 257.97 198.71 243.71 198.71 49.7 194.64 45.6"/>
  <polyline class="c" points="66.13 257.97 66.09 257.93 53.03 245.02 53.03 242.34 65.95 249.18"/>
  <polygon class="c" points="186.7 246.89 184.44 257.97 185.51 257.97 198.71 245.02 198.69 242.99 186.7 246.89"/>
  <polygon class="c" points="186.26 249.07 185.51 257.97 188.91 257.97 198.71 248.21 198.71 245.02 189.79 245.46 186.26 249.07"/>
  <polyline class="c" points="58.96 244.43 53.03 245.07 53.03 248.21 62.8 257.97 66.64 257.97 66.56 252.48 58.99 244.48"/>
  <polyline class="e" points="187.6 256.65 196.04 248.27 55.71 248.27 64.11 256.65"/>
  <polyline class="e" points="64.16 239.89 55.71 248.27 196.04 248.27 187.64 239.89"/>
</svg>