<svg width="146" height="254" viewBox="0 0 146 254" fill="none" xmlns="http://www.w3.org/2000/svg">
<path d="M13.1 253.5H13.07L12.78 253.18L13.1 253.5Z" fill="white"/>
<path d="M145.68 236.24H145.67L145.68 237.55V240.74L135.88 253.5H13.1L12.78 253.18L13.07 253.5H9.77L0 240.74V237.6H0.05L0 237.55V155.11L13.07 142.04V89.04L0 77.65V16.23L15.8 0H54.94L64.95 9.96H131.41L137.63 16.23L141.7 20.3C141.81 20.41 141.92 20.52 142 20.64L142.16 20.81L145.68 24.34V236.24Z" fill="white"/>
<path d="M13.1 253.5H13.07L12.78 253.18L13.1 253.5Z" fill="white"/>
</svg>
